<svg width="24" height="24" viewBox="0 0 24 24" fill="none" xmlns="http://www.w3.org/2000/svg">
<rect width="24" height="24" rx="6" fill="#F4F6F8"/>
<path d="M17.3491 18.9868H9.92484C9.0217 18.9868 8.28713 18.2523 8.28713 17.3491V9.92484C8.28713 9.0217 9.0217 8.28713 9.92484 8.28713H17.3491C18.2523 8.28713 18.9868 9.0217 18.9868 9.92484V17.3491C18.9868 18.2523 18.2523 18.9868 17.3491 18.9868ZM9.92484 9.37894C9.62383 9.37894 9.37894 9.62383 9.37894 9.92484V17.3491C9.37894 17.6501 9.62383 17.895 9.92484 17.895H17.3491C17.6501 17.895 17.895 17.6501 17.895 17.3491V9.92484C17.895 9.62383 17.6501 9.37894 17.3491 9.37894H9.92484ZM7.19533 14.6196H6.64943C6.34842 14.6196 6.10352 14.3747 6.10352 14.0737V6.64943C6.10352 6.34842 6.34842 6.10352 6.64943 6.10352H14.0737C14.3747 6.10352 14.6196 6.34842 14.6196 6.64943V7.16803H15.7114V6.64943C15.7114 5.74628 14.9768 5.01172 14.0737 5.01172H6.64943C5.74628 5.01172 5.01172 5.74628 5.01172 6.64943V14.0737C5.01172 14.9768 5.74628 15.7114 6.64943 15.7114H7.19533V14.6196Z" fill="#ABBED1"/>
</svg>
