<svg width="16" height="16" viewBox="0 0 16 16" fill="none" xmlns="http://www.w3.org/2000/svg">
<rect width="16" height="16" fill="#32c99700"/>
<path d="M15.2941 7.79457C15.4078 7.90827 15.4078 8.09263 15.2941 8.20633L12.3527 11.1477C12.1579 11.3425 11.8421 11.3425 11.6473 11.1477C11.4527 10.9531 11.4526 10.6376 11.647 10.4427L13.921 8.16472C14.0116 8.07395 14.0116 7.92695 13.921 7.83618L11.647 5.55811C11.4526 5.36329 11.4527 5.04775 11.6473 4.85311C11.8421 4.65834 12.1579 4.65834 12.3527 4.85311L15.2941 7.79457ZM0.705885 8.20633C0.592179 8.09263 0.59218 7.90827 0.705885 7.79457L3.64734 4.85311C3.84211 4.65834 4.15789 4.65834 4.35266 4.85311C4.5473 5.04775 4.54744 5.36329 4.35297 5.55811L2.07898 7.83618C1.98837 7.92695 1.98837 8.07395 2.07898 8.16472L4.35297 10.4427C4.54744 10.6376 4.5473 10.9531 4.35266 11.1477C4.15789 11.3425 3.84211 11.3425 3.64734 11.1477L0.705885 8.20633Z" fill="#212529"/>
</svg>
